<mxfile host="app.diagrams.net" modified="2023-12-25T07:29:00.608Z" agent="Mozilla/5.0 (Windows NT 10.0; Win64; x64) AppleWebKit/537.36 (KHTML, like Gecko) Chrome/120.0.0.0 Safari/537.36" etag="hbO_6CyydAX4_x1RilDj" version="22.1.11" type="device">
  <diagram name="Page-1" id="HF7vGmMZiip31yhq-Uzz">
    <mxGraphModel dx="1730" dy="468" grid="1" gridSize="10" guides="1" tooltips="1" connect="1" arrows="1" fold="1" page="1" pageScale="1" pageWidth="850" pageHeight="1100" math="0" shadow="0">
      <root>
        <mxCell id="0" />
        <mxCell id="1" parent="0" />
        <mxCell id="osioCOR6GMCxoqIvTm3X-2" value="S0" style="ellipse;whiteSpace=wrap;html=1;aspect=fixed;" parent="1" vertex="1">
          <mxGeometry x="-710" y="140" width="90" height="90" as="geometry" />
        </mxCell>
        <mxCell id="osioCOR6GMCxoqIvTm3X-3" value="S1" style="ellipse;whiteSpace=wrap;html=1;aspect=fixed;" parent="1" vertex="1">
          <mxGeometry x="-550" y="140" width="90" height="90" as="geometry" />
        </mxCell>
        <mxCell id="osioCOR6GMCxoqIvTm3X-4" value="" style="endArrow=classic;html=1;rounded=0;exitX=1;exitY=0.5;exitDx=0;exitDy=0;entryX=0;entryY=0.5;entryDx=0;entryDy=0;" parent="1" source="osioCOR6GMCxoqIvTm3X-2" target="osioCOR6GMCxoqIvTm3X-3" edge="1">
          <mxGeometry width="50" height="50" relative="1" as="geometry">
            <mxPoint x="-390" y="250" as="sourcePoint" />
            <mxPoint x="-340" y="200" as="targetPoint" />
          </mxGeometry>
        </mxCell>
        <mxCell id="osioCOR6GMCxoqIvTm3X-5" value="Upper&lt;br&gt;&amp;nbsp;[A-Z]" style="text;html=1;strokeColor=none;fillColor=none;align=center;verticalAlign=middle;whiteSpace=wrap;rounded=0;" parent="1" vertex="1">
          <mxGeometry x="-620" y="150" width="60" height="30" as="geometry" />
        </mxCell>
        <mxCell id="osioCOR6GMCxoqIvTm3X-6" value="S2" style="ellipse;whiteSpace=wrap;html=1;aspect=fixed;" parent="1" vertex="1">
          <mxGeometry x="-410" y="140" width="90" height="90" as="geometry" />
        </mxCell>
        <mxCell id="osioCOR6GMCxoqIvTm3X-7" value="" style="endArrow=classic;html=1;rounded=0;exitX=1;exitY=0.5;exitDx=0;exitDy=0;entryX=0;entryY=0.5;entryDx=0;entryDy=0;" parent="1" source="osioCOR6GMCxoqIvTm3X-3" target="osioCOR6GMCxoqIvTm3X-6" edge="1">
          <mxGeometry width="50" height="50" relative="1" as="geometry">
            <mxPoint x="-390" y="250" as="sourcePoint" />
            <mxPoint x="-340" y="200" as="targetPoint" />
          </mxGeometry>
        </mxCell>
        <mxCell id="osioCOR6GMCxoqIvTm3X-9" value="_" style="text;html=1;strokeColor=none;fillColor=none;align=center;verticalAlign=middle;whiteSpace=wrap;rounded=0;" parent="1" vertex="1">
          <mxGeometry x="-460" y="150" width="60" height="30" as="geometry" />
        </mxCell>
        <mxCell id="osioCOR6GMCxoqIvTm3X-11" value="" style="curved=1;endArrow=classic;html=1;rounded=0;exitX=0.5;exitY=0;exitDx=0;exitDy=0;entryX=1;entryY=0.5;entryDx=0;entryDy=0;" parent="1" source="osioCOR6GMCxoqIvTm3X-6" target="osioCOR6GMCxoqIvTm3X-6" edge="1">
          <mxGeometry width="50" height="50" relative="1" as="geometry">
            <mxPoint x="-320" y="100" as="sourcePoint" />
            <mxPoint x="-270" y="50" as="targetPoint" />
            <Array as="points">
              <mxPoint x="-360" y="80" />
              <mxPoint x="-300" y="90" />
            </Array>
          </mxGeometry>
        </mxCell>
        <mxCell id="osioCOR6GMCxoqIvTm3X-14" value="Lower&lt;br&gt;&amp;nbsp;[a-z]" style="text;html=1;strokeColor=none;fillColor=none;align=center;verticalAlign=middle;whiteSpace=wrap;rounded=0;" parent="1" vertex="1">
          <mxGeometry x="-360" y="50" width="60" height="30" as="geometry" />
        </mxCell>
        <mxCell id="osioCOR6GMCxoqIvTm3X-15" value="S3" style="ellipse;whiteSpace=wrap;html=1;aspect=fixed;" parent="1" vertex="1">
          <mxGeometry x="-240" y="100" width="90" height="90" as="geometry" />
        </mxCell>
        <mxCell id="osioCOR6GMCxoqIvTm3X-16" value="" style="endArrow=classic;html=1;rounded=0;exitX=1;exitY=0.5;exitDx=0;exitDy=0;entryX=0;entryY=0.5;entryDx=0;entryDy=0;" parent="1" source="osioCOR6GMCxoqIvTm3X-6" target="osioCOR6GMCxoqIvTm3X-15" edge="1">
          <mxGeometry width="50" height="50" relative="1" as="geometry">
            <mxPoint x="-210" y="220" as="sourcePoint" />
            <mxPoint x="-160" y="170" as="targetPoint" />
          </mxGeometry>
        </mxCell>
        <mxCell id="osioCOR6GMCxoqIvTm3X-17" value="first&lt;br&gt;digit" style="text;html=1;strokeColor=none;fillColor=none;align=center;verticalAlign=middle;whiteSpace=wrap;rounded=0;direction=west;rotation=334;" parent="1" vertex="1">
          <mxGeometry x="-310" y="130" width="60" height="30" as="geometry" />
        </mxCell>
        <mxCell id="osioCOR6GMCxoqIvTm3X-19" value="" style="endArrow=classic;html=1;rounded=0;exitX=1;exitY=1;exitDx=0;exitDy=0;entryX=0.017;entryY=0.748;entryDx=0;entryDy=0;entryPerimeter=0;" parent="1" source="osioCOR6GMCxoqIvTm3X-6" target="fErGTgCeiSEaCte2Fd7d-8" edge="1">
          <mxGeometry width="50" height="50" relative="1" as="geometry">
            <mxPoint x="-210" y="220" as="sourcePoint" />
            <mxPoint x="-239.99999999999932" y="245.0000000000001" as="targetPoint" />
          </mxGeometry>
        </mxCell>
        <mxCell id="osioCOR6GMCxoqIvTm3X-20" value="@" style="text;html=1;strokeColor=none;fillColor=none;align=center;verticalAlign=middle;whiteSpace=wrap;rounded=0;rotation=0;" parent="1" vertex="1">
          <mxGeometry x="-160" y="190" width="60" height="30" as="geometry" />
        </mxCell>
        <mxCell id="osioCOR6GMCxoqIvTm3X-23" value="" style="endArrow=classic;html=1;rounded=0;exitX=1;exitY=0.5;exitDx=0;exitDy=0;entryX=0;entryY=0.5;entryDx=0;entryDy=0;" parent="1" source="osioCOR6GMCxoqIvTm3X-15" target="fErGTgCeiSEaCte2Fd7d-3" edge="1">
          <mxGeometry width="50" height="50" relative="1" as="geometry">
            <mxPoint x="-150" y="120" as="sourcePoint" />
            <mxPoint x="10.000000000001819" y="145" as="targetPoint" />
          </mxGeometry>
        </mxCell>
        <mxCell id="fErGTgCeiSEaCte2Fd7d-3" value="S4" style="ellipse;whiteSpace=wrap;html=1;aspect=fixed;" parent="1" vertex="1">
          <mxGeometry x="-90" y="100" width="90" height="90" as="geometry" />
        </mxCell>
        <mxCell id="fErGTgCeiSEaCte2Fd7d-5" value="second&lt;br&gt;digit" style="text;html=1;strokeColor=none;fillColor=none;align=center;verticalAlign=middle;whiteSpace=wrap;rounded=0;" parent="1" vertex="1">
          <mxGeometry x="-154" y="110" width="60" height="30" as="geometry" />
        </mxCell>
        <mxCell id="fErGTgCeiSEaCte2Fd7d-7" value="" style="endArrow=classic;html=1;rounded=0;entryX=0;entryY=0.5;entryDx=0;entryDy=0;exitX=1;exitY=0.5;exitDx=0;exitDy=0;" parent="1" source="fErGTgCeiSEaCte2Fd7d-3" target="fErGTgCeiSEaCte2Fd7d-8" edge="1">
          <mxGeometry width="50" height="50" relative="1" as="geometry">
            <mxPoint x="100" y="290" as="sourcePoint" />
            <mxPoint x="70" y="145" as="targetPoint" />
          </mxGeometry>
        </mxCell>
        <mxCell id="fErGTgCeiSEaCte2Fd7d-8" value="S5" style="ellipse;whiteSpace=wrap;html=1;aspect=fixed;" parent="1" vertex="1">
          <mxGeometry x="60" y="150" width="90" height="90" as="geometry" />
        </mxCell>
        <mxCell id="fErGTgCeiSEaCte2Fd7d-10" value="@" style="text;html=1;strokeColor=none;fillColor=none;align=center;verticalAlign=middle;whiteSpace=wrap;rounded=0;rotation=38;" parent="1" vertex="1">
          <mxGeometry y="140" width="60" height="30" as="geometry" />
        </mxCell>
        <mxCell id="fErGTgCeiSEaCte2Fd7d-11" value="S6" style="ellipse;whiteSpace=wrap;html=1;aspect=fixed;" parent="1" vertex="1">
          <mxGeometry x="180" y="150" width="90" height="90" as="geometry" />
        </mxCell>
        <mxCell id="fErGTgCeiSEaCte2Fd7d-12" value="" style="endArrow=classic;html=1;rounded=0;entryX=0;entryY=0.5;entryDx=0;entryDy=0;exitX=1;exitY=0.5;exitDx=0;exitDy=0;" parent="1" source="fErGTgCeiSEaCte2Fd7d-8" target="fErGTgCeiSEaCte2Fd7d-11" edge="1">
          <mxGeometry width="50" height="50" relative="1" as="geometry">
            <mxPoint x="10" y="230" as="sourcePoint" />
            <mxPoint x="60" y="180" as="targetPoint" />
          </mxGeometry>
        </mxCell>
        <mxCell id="fErGTgCeiSEaCte2Fd7d-13" value="e" style="text;html=1;strokeColor=none;fillColor=none;align=center;verticalAlign=middle;whiteSpace=wrap;rounded=0;" parent="1" vertex="1">
          <mxGeometry x="130" y="170" width="60" height="30" as="geometry" />
        </mxCell>
        <mxCell id="fErGTgCeiSEaCte2Fd7d-14" value="S7" style="ellipse;whiteSpace=wrap;html=1;aspect=fixed;" parent="1" vertex="1">
          <mxGeometry x="300" y="150" width="90" height="90" as="geometry" />
        </mxCell>
        <mxCell id="fErGTgCeiSEaCte2Fd7d-15" value="" style="endArrow=classic;html=1;rounded=0;entryX=0;entryY=0.5;entryDx=0;entryDy=0;exitX=1;exitY=0.5;exitDx=0;exitDy=0;" parent="1" target="fErGTgCeiSEaCte2Fd7d-14" edge="1">
          <mxGeometry width="50" height="50" relative="1" as="geometry">
            <mxPoint x="270" y="195" as="sourcePoint" />
            <mxPoint x="180" y="180" as="targetPoint" />
          </mxGeometry>
        </mxCell>
        <mxCell id="fErGTgCeiSEaCte2Fd7d-16" value="v" style="text;html=1;strokeColor=none;fillColor=none;align=center;verticalAlign=middle;whiteSpace=wrap;rounded=0;" parent="1" vertex="1">
          <mxGeometry x="250" y="170" width="60" height="30" as="geometry" />
        </mxCell>
        <mxCell id="fErGTgCeiSEaCte2Fd7d-17" value="S8" style="ellipse;whiteSpace=wrap;html=1;aspect=fixed;" parent="1" vertex="1">
          <mxGeometry x="420" y="150" width="90" height="90" as="geometry" />
        </mxCell>
        <mxCell id="fErGTgCeiSEaCte2Fd7d-18" value="" style="endArrow=classic;html=1;rounded=0;entryX=0;entryY=0.5;entryDx=0;entryDy=0;exitX=1;exitY=0.5;exitDx=0;exitDy=0;" parent="1" target="fErGTgCeiSEaCte2Fd7d-17" edge="1">
          <mxGeometry width="50" height="50" relative="1" as="geometry">
            <mxPoint x="390" y="195" as="sourcePoint" />
            <mxPoint x="300" y="180" as="targetPoint" />
          </mxGeometry>
        </mxCell>
        <mxCell id="fErGTgCeiSEaCte2Fd7d-19" value="i" style="text;html=1;strokeColor=none;fillColor=none;align=center;verticalAlign=middle;whiteSpace=wrap;rounded=0;" parent="1" vertex="1">
          <mxGeometry x="370" y="170" width="60" height="30" as="geometry" />
        </mxCell>
        <mxCell id="fErGTgCeiSEaCte2Fd7d-20" value="S24" style="ellipse;whiteSpace=wrap;html=1;aspect=fixed;" parent="1" vertex="1">
          <mxGeometry x="580" y="150" width="90" height="90" as="geometry" />
        </mxCell>
        <mxCell id="fErGTgCeiSEaCte2Fd7d-21" value="" style="endArrow=classic;html=1;rounded=0;entryX=0;entryY=0.5;entryDx=0;entryDy=0;exitX=1;exitY=0.5;exitDx=0;exitDy=0;" parent="1" target="fErGTgCeiSEaCte2Fd7d-20" edge="1">
          <mxGeometry width="50" height="50" relative="1" as="geometry">
            <mxPoint x="510" y="195" as="sourcePoint" />
            <mxPoint x="420" y="180" as="targetPoint" />
          </mxGeometry>
        </mxCell>
        <mxCell id="fErGTgCeiSEaCte2Fd7d-22" value="..." style="text;html=1;strokeColor=none;fillColor=none;align=center;verticalAlign=middle;whiteSpace=wrap;rounded=0;" parent="1" vertex="1">
          <mxGeometry x="510" y="170" width="60" height="30" as="geometry" />
        </mxCell>
        <mxCell id="fErGTgCeiSEaCte2Fd7d-23" value="Domain and . com assured" style="text;html=1;strokeColor=none;fillColor=none;align=center;verticalAlign=middle;whiteSpace=wrap;rounded=0;" parent="1" vertex="1">
          <mxGeometry x="510" y="210" width="60" height="30" as="geometry" />
        </mxCell>
        <mxCell id="fErGTgCeiSEaCte2Fd7d-24" value="S-1" style="ellipse;whiteSpace=wrap;html=1;aspect=fixed;" parent="1" vertex="1">
          <mxGeometry x="-175" y="360" width="90" height="90" as="geometry" />
        </mxCell>
        <mxCell id="fErGTgCeiSEaCte2Fd7d-25" value="" style="endArrow=classic;html=1;rounded=0;exitX=0.5;exitY=1;exitDx=0;exitDy=0;entryX=0;entryY=0.5;entryDx=0;entryDy=0;" parent="1" source="osioCOR6GMCxoqIvTm3X-3" target="fErGTgCeiSEaCte2Fd7d-24" edge="1">
          <mxGeometry width="50" height="50" relative="1" as="geometry">
            <mxPoint x="-140" y="360" as="sourcePoint" />
            <mxPoint x="-90" y="310" as="targetPoint" />
          </mxGeometry>
        </mxCell>
        <mxCell id="fErGTgCeiSEaCte2Fd7d-26" value="" style="endArrow=classic;html=1;rounded=0;exitX=0.5;exitY=1;exitDx=0;exitDy=0;entryX=0;entryY=0;entryDx=0;entryDy=0;" parent="1" source="osioCOR6GMCxoqIvTm3X-6" target="fErGTgCeiSEaCte2Fd7d-24" edge="1">
          <mxGeometry width="50" height="50" relative="1" as="geometry">
            <mxPoint x="-140" y="360" as="sourcePoint" />
            <mxPoint x="-90" y="310" as="targetPoint" />
          </mxGeometry>
        </mxCell>
        <mxCell id="fErGTgCeiSEaCte2Fd7d-27" value="" style="endArrow=classic;html=1;rounded=0;exitX=0.5;exitY=1;exitDx=0;exitDy=0;entryX=0.5;entryY=0;entryDx=0;entryDy=0;" parent="1" source="fErGTgCeiSEaCte2Fd7d-8" target="fErGTgCeiSEaCte2Fd7d-24" edge="1">
          <mxGeometry width="50" height="50" relative="1" as="geometry">
            <mxPoint x="-40" y="360" as="sourcePoint" />
            <mxPoint x="140" y="440" as="targetPoint" />
          </mxGeometry>
        </mxCell>
        <mxCell id="fErGTgCeiSEaCte2Fd7d-28" value="" style="endArrow=classic;html=1;rounded=0;exitX=0.5;exitY=1;exitDx=0;exitDy=0;entryX=1;entryY=0;entryDx=0;entryDy=0;" parent="1" source="fErGTgCeiSEaCte2Fd7d-11" target="fErGTgCeiSEaCte2Fd7d-24" edge="1">
          <mxGeometry width="50" height="50" relative="1" as="geometry">
            <mxPoint x="-40" y="360" as="sourcePoint" />
            <mxPoint x="50" y="450" as="targetPoint" />
          </mxGeometry>
        </mxCell>
        <mxCell id="fErGTgCeiSEaCte2Fd7d-29" value="" style="endArrow=classic;html=1;rounded=0;exitX=0.5;exitY=1;exitDx=0;exitDy=0;entryX=1;entryY=0.5;entryDx=0;entryDy=0;" parent="1" source="fErGTgCeiSEaCte2Fd7d-14" target="fErGTgCeiSEaCte2Fd7d-24" edge="1">
          <mxGeometry width="50" height="50" relative="1" as="geometry">
            <mxPoint x="-40" y="360" as="sourcePoint" />
            <mxPoint x="10" y="310" as="targetPoint" />
          </mxGeometry>
        </mxCell>
        <mxCell id="fErGTgCeiSEaCte2Fd7d-30" value="" style="endArrow=classic;html=1;rounded=0;exitX=0.5;exitY=1;exitDx=0;exitDy=0;entryX=1;entryY=1;entryDx=0;entryDy=0;" parent="1" source="fErGTgCeiSEaCte2Fd7d-17" target="fErGTgCeiSEaCte2Fd7d-24" edge="1">
          <mxGeometry width="50" height="50" relative="1" as="geometry">
            <mxPoint x="-40" y="360" as="sourcePoint" />
            <mxPoint x="10" y="310" as="targetPoint" />
          </mxGeometry>
        </mxCell>
      </root>
    </mxGraphModel>
  </diagram>
</mxfile>
